<svg width="144" height="48" viewBox="0 0 144 48" fill="none" xmlns="http://www.w3.org/2000/svg">
<g id="Calque_1">
<path id="Vector" d="M14.7036 15.123C14.0218 16.513 13.3413 17.9043 12.6569 19.293C11.7567 21.1188 10.8565 22.9439 9.94366 24.763C9.89439 24.861 9.73659 24.9536 9.6234 24.9616C9.24788 24.9862 8.86903 24.9589 8.49284 24.9749C8.25181 24.9849 8.11199 24.9003 7.99481 24.6844C6.77303 22.4381 5.54259 20.1965 4.31082 17.9549C3.83143 17.0834 3.34338 16.2164 2.81339 15.2662C2.79808 15.4395 2.78343 15.5281 2.78343 15.6174C2.7821 18.3821 2.74814 21.1474 2.79741 23.9114C2.82138 25.2521 3.06973 26.5775 3.71957 27.7822C4.03118 28.36 4.3834 28.9264 5.09116 29.0929C5.29291 29.1409 5.50797 29.1356 5.71703 29.1509C5.88748 29.1636 6.01332 29.2016 6.00999 29.4208C6.006 29.634 5.9028 29.6807 5.71703 29.6807C3.95328 29.6773 2.18885 29.6773 0.425093 29.6807C0.255975 29.6807 0.150775 29.6513 0.149443 29.4494C0.148112 29.2642 0.19139 29.1482 0.401124 29.1469C0.914471 29.1443 1.25204 28.8331 1.41184 28.4066C1.6542 27.7602 1.89989 27.0926 1.98311 26.4136C2.39792 23.0438 2.11961 19.6548 2.1782 16.2744C2.18952 15.6327 2.0477 14.983 1.92918 14.3453C1.82598 13.7929 1.4711 13.4838 0.883843 13.4711C0.654135 13.4664 0.425093 13.4238 0.17541 13.3965V12.9593C0.286602 12.952 0.402455 12.9367 0.518974 12.9367C2.19418 12.9354 3.86938 12.9407 5.54459 12.9307C5.77762 12.9294 5.90147 13.0087 6.00999 13.2099C7.26107 15.5288 8.51947 17.8443 9.77921 20.1586C10.0695 20.6916 10.3744 21.2161 10.6987 21.7898C10.7866 21.6272 10.8552 21.5066 10.9171 21.3826C12.2654 18.6779 13.6163 15.9746 14.9553 13.2659C15.0805 13.0127 15.2269 12.9267 15.5119 12.93C17.032 12.9467 18.5514 12.9374 20.0715 12.9407C20.2239 12.9407 20.421 12.8747 20.421 13.1566C20.421 13.4218 20.2592 13.4238 20.0668 13.4278C19.8904 13.4311 19.7146 13.4811 19.5388 13.4771C19.0614 13.4658 18.8264 13.7836 18.7352 14.2174C18.6359 14.6905 18.574 15.1803 18.5727 15.6627C18.56 19.4269 18.5574 23.1904 18.5754 26.9546C18.578 27.4777 18.6772 28.0081 18.7977 28.5199C18.9049 28.9757 19.1526 29.1203 19.6254 29.1396C19.7918 29.1463 19.9583 29.1456 20.1241 29.1516C20.2958 29.1576 20.4243 29.2022 20.4197 29.4201C20.4157 29.6294 20.3098 29.6813 20.1234 29.6807C17.827 29.678 15.5306 29.678 13.2335 29.6807C13.0564 29.6807 12.9638 29.6287 12.9658 29.4354C12.9678 29.2649 13.0191 29.1562 13.2075 29.1522C13.4073 29.1483 13.6063 29.1409 13.8061 29.1349C14.1836 29.1236 14.4659 28.937 14.5432 28.5772C14.6563 28.0508 14.7682 27.5104 14.7709 26.976C14.7895 23.0898 14.7808 19.2037 14.7802 15.3175C14.7802 15.2542 14.7722 15.1916 14.7682 15.1283L14.7036 15.1223V15.123Z" fill="#152B5A"/>
<path id="Vector_2" d="M31.5214 12.5542C33.4876 12.6008 35.3099 13.0493 36.8959 14.2281C38.4433 15.3775 39.418 16.9201 39.8947 18.7932C40.1597 19.8334 40.2796 20.8862 40.1937 21.9457C39.9187 25.3407 38.2056 28.3506 34.5109 29.5454C33.8378 29.7633 33.1067 29.8066 32.4003 29.9145C31.0839 30.1164 29.7863 29.9439 28.5412 29.5394C25.6109 28.5878 23.8198 26.5228 23.1201 23.5623C22.5661 21.218 22.7792 18.9105 23.9663 16.7662C25.1122 14.6958 26.8606 13.3911 29.171 12.8847C29.9414 12.7155 30.7371 12.6608 31.5214 12.5535V12.5542ZM36.1921 21.0255C36.1528 20.4964 36.1036 19.7008 36.0317 18.9065C35.9358 17.847 35.7567 16.8015 35.3272 15.82C34.9584 14.9764 34.4763 14.2001 33.666 13.713C32.8277 13.2092 31.9209 13.0313 30.9308 13.1646C29.5499 13.3505 28.5791 14.0781 27.9639 15.2876C27.1936 16.8022 26.9445 18.4534 26.9046 20.1252C26.8746 21.36 26.9585 22.6 27.0371 23.8348C27.113 25.0222 27.4406 26.155 27.9533 27.2292C29.1497 29.7373 32.0494 29.9325 33.7486 28.8444C34.7173 28.224 35.232 27.2505 35.5669 26.185C36.0663 24.5944 36.1395 22.9452 36.1928 21.0261L36.1921 21.0255Z" fill="#152B5A"/>
<path id="Vector_3" d="M143.835 12.966V13.4131C142.571 13.4371 142.394 14.4406 142.168 15.3302C141.9 16.3803 141.84 17.4645 141.844 18.5526C141.856 22.1616 141.842 25.7712 141.857 29.3801C141.858 29.7366 141.74 29.8159 141.422 29.7992C141.012 29.7779 140.6 29.7826 140.191 29.7979C139.954 29.8066 139.8 29.7179 139.657 29.5347C138.386 27.8988 137.108 26.2689 135.833 24.6364C134.592 23.0471 133.352 21.4566 132.112 19.8667C130.968 18.3994 129.824 16.9321 128.678 15.4661C128.605 15.3715 128.516 15.2888 128.394 15.1576C128.383 15.3062 128.371 15.3988 128.371 15.4914C128.37 18.1901 128.338 20.8888 128.382 23.5869C128.408 25.2141 128.668 26.81 129.613 28.2033C130.01 28.789 130.515 29.2115 131.289 29.1522C131.46 29.1389 131.621 29.1589 131.624 29.4087C131.628 29.6773 131.466 29.6799 131.274 29.6799C129.543 29.6779 127.812 29.6779 126.08 29.6799C125.906 29.6799 125.748 29.6913 125.744 29.4347C125.741 29.2088 125.843 29.1449 126.045 29.1429C126.486 29.1375 126.751 28.8577 126.959 28.5152C127.332 27.9001 127.478 27.2085 127.595 26.5115C127.873 24.8543 127.827 23.1804 127.828 21.5099C127.828 19.744 127.846 17.9782 127.817 16.2131C127.808 15.6234 127.702 15.0316 127.599 14.4479C127.49 13.8269 127.119 13.4684 126.455 13.4724C126.345 13.4724 126.236 13.4424 126.125 13.4324C125.853 13.408 125.741 13.2478 125.789 12.952C125.891 12.9473 125.999 12.9373 126.108 12.9373C127.784 12.9373 129.459 12.9426 131.135 12.9333C131.372 12.932 131.526 13.0099 131.666 13.1925C133.114 15.0836 134.568 16.9707 136.02 18.8585C137.654 20.9834 139.289 23.1078 140.925 25.2314C140.998 25.326 141.084 25.4107 141.206 25.5466C141.216 25.392 141.229 25.2894 141.229 25.1868C141.228 22.8879 141.273 20.5876 141.205 18.2907C141.162 16.8568 140.854 15.4621 139.969 14.2587C139.569 13.7136 139.051 13.4304 138.39 13.4331C138.051 13.4344 137.943 13.3131 138.041 12.9666H143.835L143.835 12.966Z" fill="#152B5A"/>
<path id="Vector_4" d="M77.9059 25.6019C77.9186 25.4467 77.9286 25.3821 77.9286 25.3181C77.9233 23.1085 77.9439 20.8982 77.8986 18.6899C77.8746 17.5265 77.7035 16.3684 77.2168 15.2929C77.0357 14.8931 76.7934 14.5139 76.5363 14.1561C76.1002 13.5497 75.4517 13.3925 74.716 13.4258V12.9627H80.5219C80.5998 13.2479 80.5819 13.4311 80.2177 13.4484C79.7836 13.4691 79.4746 13.7283 79.2749 14.0988C78.8927 14.8085 78.6923 15.5807 78.6317 16.377C78.3021 20.699 78.5564 25.0282 78.4792 29.3535C78.4712 29.7913 78.4779 29.7919 78.0484 29.7926C77.7375 29.7926 77.4239 29.7646 77.1169 29.7993C76.6815 29.8492 76.4138 29.6753 76.1508 29.3322C74.8112 27.5817 73.4436 25.8532 72.088 24.1153C70.6305 22.2462 69.177 20.3738 67.7182 18.506C66.88 17.4325 66.0337 16.3657 65.1894 15.2969C65.1588 15.2576 65.1089 15.2336 65.0063 15.1556C65.0063 15.3342 65.0063 15.4508 65.0063 15.5674C65.0063 18.0549 64.9977 20.5424 65.0103 23.0292C65.0163 24.1946 65.1448 25.3507 65.4591 26.4769C65.6602 27.1978 65.9871 27.8629 66.4498 28.4526C66.7947 28.8924 67.2382 29.1609 67.8188 29.1476C67.874 29.1462 67.93 29.1489 67.9852 29.1502C68.177 29.1549 68.3021 29.2169 68.2922 29.4448C68.2822 29.674 68.1337 29.6767 67.9699 29.6767C66.7048 29.6767 65.4404 29.6767 64.1754 29.6767C63.6647 29.6767 63.1547 29.6733 62.644 29.6787C62.4662 29.6807 62.3417 29.6134 62.3897 29.4314C62.4183 29.3242 62.5381 29.1629 62.6207 29.1609C63.2133 29.1456 63.5575 28.7751 63.7273 28.2953C63.971 27.6037 64.2153 26.8873 64.2866 26.1643C64.6341 22.668 64.3891 19.159 64.4337 15.6554C64.4404 15.1303 64.2746 14.5926 64.1228 14.0801C64.0109 13.7023 63.6833 13.5144 63.2812 13.4851C63.0601 13.4691 62.8404 13.4331 62.6194 13.4264C62.4249 13.4204 62.379 13.3218 62.377 13.1499C62.3743 12.9627 62.4742 12.9333 62.6294 12.9333C64.3938 12.936 66.1575 12.9333 67.922 12.9433C68.0325 12.944 68.1776 13.0226 68.2469 13.1119C69.4087 14.6072 70.5593 16.1112 71.7151 17.6118C73.1147 19.4282 74.5176 21.242 75.9171 23.0585C76.4917 23.8041 77.0623 24.5531 77.6363 25.2994C77.7022 25.3854 77.7801 25.4613 77.9053 25.6006L77.9059 25.6019Z" fill="#152B5A"/>
<path id="Vector_5" d="M107.289 29.6613C107.236 29.1596 107.24 29.1562 107.699 29.1489C108.784 29.1323 108.971 28.919 108.69 27.8675C108.503 27.1665 108.242 26.4849 107.995 25.8012C107.716 25.0322 107.41 24.2739 107.132 23.505C107.058 23.2997 106.968 23.2078 106.735 23.2091C105.148 23.2191 103.562 23.2191 101.976 23.2078C101.733 23.2058 101.637 23.2917 101.549 23.5103C101.081 24.6771 100.727 25.8672 100.771 27.1399C100.782 27.4784 100.829 27.8249 100.922 28.1501C101.101 28.7711 101.584 29.1163 102.226 29.1409C102.326 29.1449 102.426 29.1462 102.525 29.1496C102.705 29.1569 102.849 29.1856 102.848 29.4261C102.846 29.672 102.707 29.68 102.522 29.6793C101.313 29.6747 100.104 29.6767 98.8948 29.6767C98.3954 29.6767 97.896 29.672 97.3973 29.6787C97.2122 29.6813 97.1044 29.636 97.0997 29.4228C97.0957 29.2149 97.1969 29.1376 97.382 29.1469C98.0898 29.1816 98.5512 28.7698 98.8368 28.2127C99.3955 27.1226 99.9434 26.0204 100.39 24.8816C101.691 21.5612 102.942 18.2208 104.211 14.8871C104.442 14.278 104.666 13.6657 104.885 13.0513C104.954 12.8561 105.064 12.7788 105.277 12.7881C105.665 12.8054 106.054 12.8021 106.442 12.7874C106.65 12.7794 106.75 12.8481 106.831 13.0493C107.766 15.3662 108.707 17.6811 109.658 19.992C110.675 22.4648 111.696 24.9363 112.735 27.3998C112.91 27.8136 113.169 28.1947 113.412 28.5752C113.641 28.9324 113.984 29.1236 114.414 29.1369C114.617 29.1436 114.754 29.1929 114.743 29.4428C114.731 29.6993 114.564 29.6773 114.394 29.6773C112.109 29.6773 109.824 29.6773 107.538 29.6773C107.463 29.6773 107.387 29.6673 107.291 29.6607L107.289 29.6613ZM104.309 16.0932C103.474 18.3408 102.672 20.4997 101.854 22.702H106.811C105.978 20.5017 105.159 18.3408 104.309 16.0932Z" fill="#152B5A"/>
<path id="Vector_6" d="M90.4309 29.5994C90.604 29.0283 90.6725 28.4519 90.4808 27.8729C90.1832 26.9746 89.56 26.4155 88.6458 26.231C88.3315 26.1677 88.3142 26.0277 88.3142 25.7845C88.3175 22.6307 88.3255 19.4769 88.3095 16.3231C88.3062 15.6047 88.2423 14.8844 88.1577 14.1707C88.0905 13.603 87.8748 13.4784 87.2868 13.4384C85.9679 13.3485 85.0996 14.0341 84.3879 15.043C83.74 15.9612 83.3771 17.0027 83.0183 18.0496C82.9643 18.2061 82.9311 18.3754 82.8465 18.5127C82.8025 18.5833 82.6627 18.6326 82.5728 18.6233C82.5103 18.6173 82.427 18.5027 82.4104 18.424C82.3831 18.2968 82.4017 18.1588 82.4017 18.0256C82.4017 16.4483 82.4071 14.8717 82.3964 13.2952C82.3944 13.028 82.4577 12.9313 82.744 12.932C87.693 12.94 92.642 12.9387 97.5904 12.932C97.8328 12.932 97.922 12.998 97.9207 13.2492C97.9127 14.937 97.9187 16.6249 97.9094 18.3128C97.9094 18.4207 97.8148 18.528 97.7642 18.6359C97.657 18.5507 97.4959 18.4867 97.4513 18.3761C97.167 17.6697 96.9486 16.9341 96.6303 16.2438C96.2109 15.3335 95.6849 14.4833 94.8393 13.8889C94.1674 13.4171 93.4157 13.3671 92.6427 13.5084C92.5109 13.5324 92.3424 13.693 92.3031 13.8249C92.2019 14.1608 92.118 14.5146 92.1081 14.8638C92.0694 16.2391 92.0521 17.6158 92.0461 18.9918C92.0368 21.1128 92.0302 23.2337 92.0501 25.3547C92.0588 26.2743 92.1074 27.1952 92.192 28.1107C92.2672 28.9257 92.5122 29.1143 93.3185 29.1429C93.4517 29.1476 93.6028 29.1203 93.7107 29.1756C93.7959 29.2195 93.8612 29.3648 93.8692 29.4701C93.8738 29.5334 93.7526 29.666 93.6874 29.6667C92.6334 29.676 91.5794 29.6693 90.5261 29.6647C90.5081 29.6647 90.4908 29.6413 90.4295 29.598L90.4309 29.5994Z" fill="#152B5A"/>
<path id="Vector_7" d="M82.1433 9.77219C81.857 9.68157 81.6293 9.67024 81.4875 9.5543C80.9082 9.07919 80.1985 8.88062 79.5366 8.58343C79.0359 8.3582 78.5619 8.11032 78.229 7.65321C78.0891 7.46063 77.906 7.42998 77.7076 7.55792C77.5132 7.68319 77.3248 7.81779 77.1357 7.9504C76.5325 8.37419 75.9346 8.20961 75.7115 7.50928C75.4858 6.80095 75.3773 6.98952 74.9451 7.24074C73.786 7.91441 72.7959 8.79 71.8944 9.77952C70.9809 10.7824 70.5427 10.8044 69.4801 9.94677C68.9807 9.54363 68.5067 9.10918 68.0246 8.68405C67.7696 8.45949 67.5426 8.52279 67.3235 8.73202C67.2276 8.82398 67.1404 8.92593 67.0425 9.01589C66.7868 9.25111 66.5432 9.25577 66.2748 9.03654C65.868 8.70404 65.9 8.78133 65.4199 8.98057C64.9945 9.15715 64.5816 9.32374 64.2121 9.59961C64.1515 9.64492 64.0397 9.63692 63.9538 9.62959C63.6708 9.60627 63.4404 9.69223 63.232 9.8928C63.1588 9.96343 63.0057 9.95144 62.8891 9.97676C62.8685 9.85882 62.7906 9.70822 62.8365 9.62893C63.0669 9.22845 63.2846 8.80599 63.5902 8.46682C64.5916 7.35535 65.629 6.27587 66.6537 5.18572C66.7289 5.10576 66.8161 5.03579 66.902 4.96583C67.4573 4.51604 67.7576 4.51604 68.3082 4.96716C68.5912 5.19905 68.8669 5.43893 69.1558 5.66349C69.6732 6.0653 69.9735 6.02532 70.4116 5.55288C71.2625 4.63399 72.1281 3.72909 72.9816 2.81286C73.4198 2.34309 73.8485 1.86465 74.276 1.38488C74.7587 0.843138 75.0637 0.779835 75.581 1.28093C76.4472 2.12053 77.3148 2.96879 78.0852 3.89368C79.2037 5.23637 80.2444 6.64502 81.2997 8.03969C81.5714 8.39885 81.7858 8.80399 82.0042 9.20047C82.0781 9.3344 82.0827 9.50632 82.1447 9.77152L82.1433 9.77219ZM74.8566 2.01524C74.8213 2.02724 74.7587 2.04856 74.6961 2.06855C74.0976 2.26112 73.6714 2.68625 73.3265 3.17602C73.1161 3.47454 72.9637 3.8357 72.8711 4.19087C72.7812 4.53537 73.0356 4.72261 73.3865 4.63532C74.1775 4.43875 75.1662 3.3546 75.2934 2.54432C75.338 2.26112 75.1422 2.00658 74.8559 2.01524H74.8566Z" fill="#152B5A"/>
<path id="Vector_8" d="M123.725 12.96C123.796 13.2625 123.781 13.4724 123.402 13.4265C123.327 13.4171 123.248 13.4385 123.171 13.4451C122.291 13.5231 122.117 13.6757 121.992 14.5613C121.937 14.9551 121.906 15.3562 121.906 15.754C121.899 19.4509 121.896 23.1478 121.908 26.8447C121.91 27.3398 121.98 27.8382 122.058 28.328C122.151 28.9031 122.43 29.1196 123.013 29.1376C123.168 29.1423 123.323 29.1476 123.478 29.1509C123.661 29.1549 123.763 29.2182 123.76 29.4288C123.757 29.6487 123.642 29.6793 123.462 29.6793C121.165 29.6767 118.87 29.6767 116.573 29.6807C116.387 29.6807 116.279 29.634 116.275 29.4235C116.271 29.2102 116.389 29.1563 116.567 29.1523C116.656 29.1503 116.745 29.1423 116.833 29.1456C117.855 29.1842 117.944 28.6472 118.033 27.9835C118.115 27.3718 118.122 26.7467 118.123 26.127C118.128 22.5301 118.128 18.9332 118.11 15.3362C118.108 14.9144 118 14.4886 117.907 14.0728C117.827 13.7137 117.588 13.5018 117.201 13.4838C117.013 13.4751 116.827 13.4411 116.64 13.4285C116.26 13.4025 116.24 13.3785 116.326 12.96H123.724H123.725Z" fill="#152B5A"/>
<path id="Vector_9" d="M42.5458 12.9593H49.9424C50.0203 13.3838 50.0057 13.4038 49.6288 13.4251C49.485 13.4331 49.3412 13.4451 49.198 13.4631C48.5122 13.5497 48.2812 13.777 48.2153 14.4793C48.1647 15.0197 48.1161 15.5634 48.1154 16.1058C48.1121 18.9378 48.0948 21.7698 48.1414 24.6004C48.1807 27.0019 49.6694 28.6338 52.0358 28.989C52.0564 28.9923 52.0757 29.0057 52.1203 29.025V29.9079C51.6037 29.9079 51.083 29.9505 50.5716 29.8986C49.6142 29.8013 48.6774 29.6134 47.7772 29.2335C45.6812 28.35 44.3542 26.4202 44.3482 24.1467C44.3409 21.3813 44.3495 18.616 44.3342 15.8513C44.3309 15.3229 44.2643 14.7918 44.1937 14.2667C44.1285 13.781 43.8542 13.5457 43.3568 13.4811C43.1923 13.4598 43.0272 13.4365 42.8614 13.4265C42.4779 13.4025 42.4766 13.4038 42.5452 12.9587L42.5458 12.9593Z" fill="#152B5A"/>
<path id="Vector_10" d="M64.9438 36.4828C64.9385 37.3717 65.6509 38.1879 66.6596 38.1653C67.4313 38.148 68.1051 37.9694 68.5699 37.3057C68.717 37.0958 68.9181 37.1251 69.1078 37.1678C69.6039 37.279 70.0946 37.4123 70.5873 37.5369C70.6299 37.5476 70.6705 37.5669 70.7138 37.5789C71.2871 37.7368 71.2818 37.7362 70.9435 38.2479C70.068 39.5726 68.7723 40.1223 67.2529 40.227C66.2968 40.2923 65.3526 40.2136 64.4571 39.8132C62.7972 39.0715 62.0435 37.7568 61.9955 35.9803C61.9663 34.8922 62.2033 33.8787 62.9031 33.0284C63.6774 32.0875 64.7461 31.6457 65.9219 31.5578C66.6969 31.4998 67.5052 31.5398 68.2649 31.6997C69.6678 31.9949 70.6572 32.8418 71.0108 34.2771C71.1519 34.8509 71.1612 35.4572 71.2298 36.0483C71.2671 36.3681 71.1519 36.4928 70.8044 36.4894C69.0186 36.4734 67.2322 36.4828 65.4458 36.4834C65.2834 36.4834 65.1209 36.4834 64.9431 36.4834L64.9438 36.4828ZM66.5271 34.8675C66.5271 34.8675 66.5271 34.8615 66.5271 34.8582C66.9805 34.8582 67.4346 34.8595 67.8881 34.8582C68.0519 34.8582 68.1997 34.8056 68.1278 34.6077C68.0459 34.3824 67.95 34.1519 67.8102 33.96C67.3987 33.3936 66.7841 33.3882 66.1869 33.4829C65.5737 33.5795 65.2281 34.0246 65.0257 34.5877C64.9538 34.7869 65.0124 34.8755 65.2348 34.8702C65.6656 34.8609 66.0963 34.8675 66.5278 34.8675H66.5271Z" fill="#CFA951"/>
<path id="Vector_11" d="M47.542 40.2836C46.4034 40.2649 45.3494 39.9824 44.4393 39.3173C43.4379 38.5857 42.8466 37.5802 42.764 36.3201C42.6822 35.0747 42.9218 33.9199 43.8101 32.9751C44.5844 32.1521 45.5439 31.6863 46.6571 31.5431C47.4774 31.4371 48.2964 31.4698 49.0973 31.687C50.8691 32.1674 52.284 33.6787 52.3252 35.7097C52.3505 36.9312 51.9777 37.9847 51.1501 38.8582C50.5535 39.4873 49.7991 39.8917 48.9489 40.077C48.4868 40.1776 48.0114 40.2169 47.5413 40.2836H47.542ZM47.4934 37.8734C48.7578 37.8427 49.3277 37.0531 49.4176 35.9276C49.5028 34.8648 48.6173 33.8893 47.6751 33.854C46.3695 33.8047 45.6757 34.7609 45.6497 35.7904C45.6191 36.9985 46.3874 37.852 47.494 37.8734H47.4934Z" fill="#CFA951"/>
<path id="Vector_12" d="M90.447 35.4399C90.4204 34.1712 91.1568 32.9511 92.6076 32.1248C93.6689 31.5204 94.8108 31.3945 95.9846 31.5404C97.4967 31.7283 98.7538 32.3894 99.5008 33.778C100.045 34.7895 100.149 35.8744 99.8797 37.0011C99.3963 39.0242 97.4687 40.139 95.6164 40.2329C94.5831 40.2856 93.589 40.147 92.6615 39.6379C91.1607 38.8143 90.4443 37.5482 90.447 35.4399ZM97.0899 35.8024C97.0626 34.6416 96.2616 33.8233 95.145 33.8587C94.0924 33.892 93.2874 34.7022 93.334 35.963C93.3779 37.1477 94.1982 37.8701 95.177 37.8754C96.3655 37.8821 97.1192 37.0298 97.0899 35.8024Z" fill="#CFA951"/>
<path id="Vector_13" d="M104.028 32.6113C104.921 31.4885 106.082 31.3612 107.337 31.5651C108.92 31.823 109.437 33.0544 109.485 34.3857C109.542 35.9377 109.507 37.4936 109.512 39.0475C109.513 39.2914 109.505 39.5359 109.508 39.7798C109.51 39.9824 109.435 40.085 109.214 40.083C108.427 40.077 107.639 40.075 106.852 40.0877C106.54 40.0923 106.554 39.8918 106.554 39.6879C106.553 38.1226 106.554 36.5574 106.552 34.9921C106.552 34.8815 106.545 34.7709 106.535 34.6609C106.437 33.5541 105.628 33.2996 104.777 33.6354C104.219 33.856 104.02 34.3831 104.021 34.9675C104.022 36.4328 104.03 37.8974 104.036 39.3627C104.036 39.4513 104.046 39.5399 104.044 39.6286C104.033 40.045 103.992 40.0817 103.584 40.0803C102.908 40.0777 102.231 40.0643 101.555 40.083C101.259 40.0917 101.167 39.9797 101.168 39.7005C101.173 38.3572 101.167 37.0145 101.166 35.6711C101.165 34.4943 101.164 33.3176 101.167 32.1408C101.167 31.693 101.183 31.6817 101.638 31.681C102.326 31.6797 103.014 31.6877 103.701 31.677C103.958 31.673 104.07 31.7503 104.032 32.0249C104.006 32.2168 104.027 32.4153 104.027 32.6113H104.028Z" fill="#CFA951"/>
<path id="Vector_14" d="M79.4862 36.8532C79.4862 37.1004 79.4862 37.347 79.4862 37.5942C79.4848 38.1379 79.5008 38.683 79.4695 39.2247C79.4615 39.3687 79.343 39.5692 79.2185 39.6339C77.279 40.6321 75.3594 40.4855 73.5936 39.2867C72.2886 38.4005 71.7866 37.0405 71.9258 35.4545C72.003 34.5676 72.2767 33.754 72.8679 33.0943C73.4838 32.4067 74.2661 31.9336 75.1643 31.701C76.1431 31.4471 77.1405 31.4258 78.1252 31.663C78.5181 31.7577 78.8922 31.9416 79.2611 32.1135C79.3603 32.1601 79.4689 32.3134 79.4708 32.4193C79.4868 33.1956 79.4775 33.9719 79.4722 34.7489C79.4722 34.7875 79.4369 34.8255 79.4116 34.8775C79.0867 34.6369 78.795 34.3624 78.4541 34.1805C77.5033 33.6741 76.5446 33.5788 75.6018 34.2351C74.906 34.7196 74.6456 35.931 74.9972 36.7713C75.3994 37.7328 76.7283 38.2199 77.8016 37.8507C78.3363 37.6668 78.8237 37.4296 79.1879 36.9818C79.2391 36.9192 79.3184 36.8799 79.385 36.8299C79.4189 36.8379 79.4529 36.8465 79.4875 36.8545L79.4862 36.8532Z" fill="#CFA951"/>
<path id="Vector_15" d="M41.6728 34.8735C41.2733 34.587 40.9471 34.2705 40.5576 34.0886C39.385 33.5408 38.1446 33.6381 37.4116 34.7822C36.9575 35.4912 36.9808 36.2668 37.4042 36.9938C37.819 37.7055 38.4955 37.97 39.2892 37.9514C40.182 37.93 40.9524 37.6262 41.527 36.9085C41.551 36.8785 41.6009 36.8692 41.7301 36.8046C41.7301 37.1604 41.7301 37.4609 41.7301 37.7615C41.7294 38.1946 41.7088 38.6284 41.7334 39.0602C41.7534 39.4127 41.6062 39.6086 41.3026 39.7612C40.188 40.3189 39.0215 40.3329 37.831 40.121C36.4967 39.8844 35.4407 39.2174 34.735 38.0487C34.2549 37.253 34.1177 36.3688 34.195 35.4559C34.3028 34.1818 34.8621 33.1377 35.9181 32.4074C36.8962 31.731 38.0048 31.4725 39.1926 31.5105C40.0023 31.5364 40.7879 31.6351 41.4764 32.1002C41.5942 32.1801 41.7174 32.3514 41.7221 32.484C41.746 33.1823 41.7347 33.8826 41.7294 34.5816C41.7287 34.6763 41.6941 34.7702 41.6728 34.8742V34.8735Z" fill="#CFA951"/>
<path id="Vector_16" d="M56.3655 32.9937C56.3655 35.2246 56.3629 37.4549 56.3689 39.6858C56.3695 39.973 56.2483 40.0876 55.9707 40.0856C55.2609 40.0803 54.5512 40.0703 53.8421 40.0896C53.5424 40.0976 53.4779 39.949 53.4785 39.7065C53.4799 39.3633 53.4852 39.0195 53.4852 38.6763C53.4852 34.6696 53.4852 30.6635 53.4852 26.6567C53.4852 26.5455 53.4912 26.4342 53.4852 26.3236C53.4699 26.0197 53.5724 25.8964 53.912 25.9144C54.5964 25.9497 55.2842 25.9397 55.9707 25.9251C56.255 25.9191 56.3622 25.9997 56.3609 26.3016C56.3502 28.5325 56.3549 30.7634 56.3549 32.9937C56.3589 32.9937 56.3622 32.9937 56.3662 32.9937H56.3655Z" fill="#CFA951"/>
<path id="Vector_17" d="M57.9803 33.0164C57.9803 30.7961 57.9849 28.5752 57.9756 26.3549C57.9743 26.0384 58.0735 25.9224 58.3984 25.9304C59.1181 25.9471 59.8379 25.9224 60.5577 25.9338C60.6402 25.9351 60.7567 26.0371 60.7934 26.1203C60.8393 26.2256 60.8253 26.3596 60.8253 26.4808C60.8286 30.8881 60.83 35.2959 60.8353 39.7032C60.8353 39.9877 60.7254 40.095 60.4371 40.0883C59.7387 40.073 59.0396 40.0763 58.3411 40.085C58.0934 40.0883 57.9756 40.011 57.9763 39.7432C57.9816 37.5009 57.9796 35.258 57.9796 33.0157L57.9803 33.0164Z" fill="#CFA951"/>
<path id="Vector_18" d="M81.4921 28.8204C82.3297 28.8204 83.1374 28.8104 83.9443 28.8371C84.0202 28.8398 84.1474 29.0743 84.1514 29.2036C84.1714 29.9139 84.1741 30.6249 84.1541 31.3352C84.1461 31.6178 84.236 31.7104 84.5123 31.6891C84.7993 31.6671 85.0889 31.6837 85.3772 31.6791C85.5556 31.6764 85.6395 31.7477 85.6382 31.9363C85.6335 32.5467 85.6349 33.1577 85.6415 33.7681C85.6448 34.0466 85.4584 34.0599 85.2613 34.0619C84.9011 34.0653 84.5409 34.0626 84.1561 34.0626C84.1561 34.3285 84.1561 34.5484 84.1561 34.7683C84.1561 36.4008 84.1501 38.0334 84.1614 39.6652C84.1634 39.9804 84.0682 40.0984 83.7426 40.0857C83.1553 40.0631 82.5668 40.077 81.9782 40.0797C81.4628 40.0824 81.4622 40.085 81.4622 39.58C81.4622 38.014 81.4622 36.4481 81.4628 34.8822C81.4628 34.6283 81.4628 34.3744 81.4628 34.0566C81.0886 34.0566 80.7284 34.0426 80.3702 34.0613C80.0939 34.0753 79.996 33.976 80.0034 33.6981C80.018 33.121 80.0093 32.544 80.002 31.9663C79.9994 31.7557 80.0766 31.6644 80.297 31.6764C80.5626 31.6911 80.831 31.6611 81.0953 31.6851C81.3976 31.7124 81.4801 31.5844 81.4748 31.3033C81.4615 30.5709 81.4675 29.838 81.4675 29.105C81.4675 29.0283 81.4801 28.9517 81.4915 28.8198L81.4921 28.8204Z" fill="#CFA951"/>
<path id="Vector_19" d="M89.1626 35.8797C89.1626 37.1104 89.1626 38.3419 89.1626 39.5726C89.1626 40.077 89.1546 40.0864 88.6479 40.083C88.0167 40.079 87.3848 40.0704 86.7536 40.075C86.5026 40.077 86.3988 39.9844 86.3994 39.7232C86.4061 37.1618 86.4054 34.5997 86.4021 32.0382C86.4021 31.7717 86.496 31.6631 86.7749 31.6697C87.4614 31.687 88.1492 31.689 88.8357 31.6764C89.076 31.6717 89.1632 31.7284 89.1606 31.9882C89.1473 33.2856 89.1546 34.583 89.1546 35.8804C89.1572 35.8804 89.1606 35.8804 89.1632 35.8804L89.1626 35.8797Z" fill="#CFA951"/>
<path id="Vector_20" d="M24.1436 45.6383C16.3009 45.6383 8.45756 45.639 0.614862 45.6317C0.459726 45.6317 0.179416 45.7696 0.167431 45.4731C0.154115 45.1512 0.447076 45.2951 0.598217 45.2951C16.3063 45.2878 32.0143 45.2871 47.7223 45.2925C47.8815 45.2925 48.1744 45.1745 48.1638 45.4711C48.1538 45.7509 47.8688 45.633 47.7057 45.6336C39.8517 45.6396 31.9976 45.6383 24.1436 45.6383Z" fill="#152B5A"/>
<path id="Vector_21" d="M119.871 45.6377C112.038 45.6377 104.205 45.6377 96.3725 45.6377C96.3279 45.6377 96.2773 45.6524 96.2407 45.6357C96.1182 45.5791 96.001 45.5118 95.8818 45.4485C95.997 45.3945 96.1122 45.2952 96.2281 45.2945C97.5151 45.2839 98.8021 45.2892 100.089 45.2892C114.545 45.2892 129.002 45.2905 143.458 45.2905C143.525 45.2905 143.601 45.2706 143.655 45.2965C143.729 45.3325 143.786 45.4038 143.85 45.4598C143.79 45.5184 143.739 45.6084 143.668 45.629C143.565 45.6584 143.448 45.6377 143.337 45.6377C135.515 45.6377 127.693 45.6377 119.872 45.6377H119.871Z" fill="#152B5A"/>
<path id="Vector_22" d="M58.5167 24.5024H57.9854C57.9854 24.3672 57.9854 24.2485 57.9854 24.1306C57.9854 22.2875 58.0034 20.4437 57.9794 18.6006C57.9621 17.2479 57.6585 15.9472 57.0239 14.7491C56.6105 13.9688 56.0139 13.3931 55.0398 13.4264C54.6609 13.4397 54.7528 13.1972 54.7635 12.9593H60.5801V13.3937C59.2464 13.5077 59.068 14.5519 58.8509 15.5427C58.5933 16.7202 58.5793 17.9189 58.5859 19.119C58.5946 20.5623 58.5933 22.0063 58.5859 23.4496C58.5839 23.7914 58.542 24.1333 58.5167 24.5024Z" fill="#152B5A"/>
<path id="Vector_23" d="M87.7577 30.1524C86.7769 30.1371 86.135 29.4981 86.1517 28.5525C86.1657 27.7356 86.932 27.0766 87.8602 27.1112C88.6891 27.1419 89.5148 27.7503 89.4222 28.8251C89.3583 29.5701 88.6645 30.1664 87.7577 30.1524Z" fill="#CFA951"/>
<path id="Vector_24" d="M68.0895 43.7092C68.9877 43.6413 69.8666 44.3436 69.852 45.3938C69.8373 46.4053 69.2341 47.1403 68.1062 47.1449C67.0136 47.1496 66.3418 46.5159 66.3178 45.3958C66.2972 44.4316 67.0549 43.6679 68.0895 43.7086V43.7092ZM68.0696 46.332C68.6342 46.3353 68.9644 46.0001 68.9724 45.4171C68.9797 44.87 68.6275 44.4869 68.1142 44.4822C67.5882 44.4782 67.2366 44.84 67.234 45.3898C67.2313 45.9682 67.5516 46.3287 68.0696 46.332Z" fill="#152B5A"/>
<path id="Vector_25" d="M64.5671 43.6806C64.7402 44.7807 64.9133 45.8809 65.0944 47.031C64.8108 47.031 64.5758 47.0603 64.3554 47.0163C64.2688 46.999 64.1736 46.8258 64.153 46.7105C64.0897 46.356 64.0604 45.9955 63.9406 45.6157C63.6822 45.9862 63.4232 46.3573 63.1389 46.7651C62.8606 46.346 62.6069 45.9635 62.296 45.4951C62.2441 45.9029 62.1955 46.2134 62.1675 46.5259C62.1216 47.039 62.1269 47.0403 61.6042 47.035C61.4864 47.0337 61.3678 47.0237 61.2354 47.017C61.4011 45.8769 61.5616 44.7734 61.7227 43.6693C61.758 43.6646 61.7933 43.6599 61.8286 43.6553C62.258 44.2636 62.6875 44.8714 63.1516 45.5297C63.6077 44.884 64.0378 44.2756 64.4679 43.6673C64.5005 43.6719 64.5338 43.6766 64.5664 43.6819L64.5671 43.6806Z" fill="#152B5A"/>
<path id="Vector_26" d="M56.9915 47.0104H56.1133C56.2864 45.8836 56.4542 44.7881 56.6226 43.6926C56.6493 43.676 56.6752 43.6593 56.7019 43.6426C57.144 44.255 57.5861 44.8674 58.0521 45.5144C58.5029 44.884 58.937 44.2763 59.3711 43.6686C59.4031 43.6666 59.4351 43.664 59.4663 43.662C59.6415 44.7668 59.8159 45.8722 59.9997 47.0303C59.7254 47.0303 59.4823 47.053 59.2486 47.017C59.1734 47.005 59.0828 46.8444 59.0662 46.7405C59.0049 46.366 58.9723 45.9869 58.8518 45.5937C58.5928 45.9702 58.3338 46.346 58.0475 46.7611C57.7645 46.3453 57.5075 45.9689 57.1919 45.5051C57.118 46.0615 57.0561 46.5273 56.9915 47.0104Z" fill="#152B5A"/>
<path id="Vector_27" d="M71.3086 43.7972C71.8526 43.7972 72.3759 43.7579 72.8892 43.8112C73.2102 43.8445 73.5338 43.9905 73.6576 44.361C73.7808 44.7281 73.6376 45.0066 73.3853 45.2279C73.5417 45.4464 73.7515 45.635 73.8287 45.8676C74.0165 46.434 73.6962 46.9251 73.051 46.9984C72.4851 47.063 71.9058 47.0117 71.3086 47.0117V43.7959V43.7972ZM72.1256 45.9562C72.1222 46.3587 72.1296 46.3667 72.4425 46.3673C72.8173 46.3673 73.0204 46.2441 72.9931 46.0048C72.9532 45.6563 72.6615 45.6883 72.4172 45.6557C72.1482 45.6197 72.0936 45.7656 72.1262 45.9562H72.1256ZM72.0963 44.9707C72.1249 45.002 72.1542 45.034 72.1828 45.0653C72.3759 45.006 72.577 44.9633 72.7548 44.8734C72.7907 44.8554 72.7734 44.5895 72.7148 44.5575C72.5697 44.4776 72.3866 44.4662 72.2181 44.4276L72.0956 44.9707H72.0963Z" fill="#152B5A"/>
<path id="Vector_28" d="M87.4971 43.8192C88.0683 43.8192 88.6236 43.7732 89.1663 43.8346C89.5624 43.8799 89.8787 44.1384 89.952 44.5795C90.0272 45.0326 89.9599 45.4418 89.5418 45.7223C89.4965 45.753 89.4572 45.7923 89.3933 45.8463C89.641 46.2187 89.8867 46.5879 90.1397 46.9684C89.4546 47.1556 89.2255 47.0717 88.8966 46.5539C88.7575 46.3354 88.605 46.1255 88.4592 45.9116C88.4206 45.9282 88.3813 45.9449 88.3427 45.9609V47.013H87.4977V43.8186L87.4971 43.8192ZM88.3613 44.3969V45.3298C88.6263 45.2365 88.856 45.1899 89.0404 45.072C89.103 45.032 89.1057 44.7348 89.0411 44.6895C88.8593 44.5622 88.629 44.5049 88.3613 44.3969Z" fill="#152B5A"/>
<path id="Vector_29" d="M83.7188 47.0343V43.7939C84.4112 43.7939 85.0837 43.7879 85.7568 43.7966C86.0385 43.8006 85.918 44.0331 85.9339 44.1744C85.9526 44.341 85.9253 44.4862 85.6969 44.4816C85.3327 44.4742 84.9685 44.4796 84.579 44.4796V44.964C84.868 44.964 85.1629 44.9787 85.4552 44.96C85.7289 44.9427 85.8247 45.0373 85.8188 45.3172C85.8128 45.5764 85.7588 45.7096 85.4659 45.6857C85.1816 45.663 84.8933 45.681 84.5803 45.681V46.3313C84.9272 46.3313 85.2788 46.3467 85.6283 46.3267C85.9266 46.31 85.9373 46.4753 85.9433 46.7005C85.9493 46.9331 85.8953 47.045 85.633 47.0383C85.0038 47.0237 84.3739 47.0337 83.7188 47.0337V47.0343Z" fill="#152B5A"/>
<path id="Vector_30" d="M78.6586 43.7912C78.6586 44.5282 78.6732 45.2252 78.6519 45.9209C78.642 46.2367 78.7298 46.374 79.0581 46.33C79.2212 46.308 79.3923 46.3427 79.5555 46.322C79.8731 46.2814 79.9876 46.3966 79.9629 46.7225C79.947 46.9371 79.9143 47.0463 79.6693 47.0397C79.1493 47.0257 78.628 47.029 78.1073 47.0397C77.8756 47.0443 77.8004 46.9557 77.803 46.7272C77.813 45.8622 77.8183 44.9973 77.801 44.1331C77.795 43.8452 77.8996 43.7599 78.1659 43.7886C78.3164 43.8046 78.4695 43.7912 78.6579 43.7912H78.6586Z" fill="#152B5A"/>
<path id="Vector_31" d="M82.0749 43.8185V47.0057H81.252V43.8185H82.0749Z" fill="#152B5A"/>
<path id="Vector_32" d="M53.8496 43.8079H54.6526V47.0104H53.8496V43.8079Z" fill="#152B5A"/>
<path id="Vector_33" d="M75.3648 43.8085H76.1504V47.0337C75.946 47.0337 75.7389 47.049 75.5372 47.025C75.4733 47.0177 75.3727 46.9057 75.3721 46.8411C75.3614 45.8436 75.3648 44.8467 75.3648 43.8085Z" fill="#152B5A"/>
</g>
</svg>
